<svg width="100" height="97" viewBox="0 0 100 97" fill="none" xmlns="http://www.w3.org/2000/svg">
<path d="M49.8669 0.0223131C50.2399 0.0223131 50.615 0.0411428 50.9869 0.019175C53.3045 -0.118908 55.5348 0.532802 57.8163 0.711683C57.9483 0.722143 58.0781 0.787 58.2046 0.836166C58.5765 0.978433 58.8415 1.02132 58.57 1.60085C58.0977 2.60928 57.8709 3.72231 57.5273 4.78722C57.3059 5.4745 57.0824 6.16282 56.8141 6.83441C56.6407 7.26853 56.741 7.47671 57.21 7.59805C59.256 8.12632 61.2278 8.85963 63.1385 9.72265C64.4811 10.3283 65.7669 11.0574 67.0353 11.7991C67.4247 12.0272 67.6057 11.9613 67.8445 11.6903C69.0257 10.3524 70.4097 9.19019 71.5145 7.78216C72.0925 7.04467 72.1841 7.04363 72.9432 7.62002C75.0415 9.21425 76.8672 11.07 78.5871 13.0283C79.1215 13.6371 79.6472 14.2553 80.2056 14.8443C80.4695 15.1236 80.4651 15.2606 80.1347 15.5023C78.5969 16.6226 77.0831 17.7723 75.565 18.9177C75.1735 19.2127 75.0884 19.4596 75.408 19.969C76.347 21.4723 77.2227 23.0194 77.9534 24.6293C78.4442 25.7131 78.9579 26.7905 79.248 27.9506C79.3571 28.3848 79.7889 28.2572 80.0769 28.2174C81.9898 27.9569 83.9038 27.7174 85.8331 27.6117C86.3359 27.5845 86.4537 27.9883 86.4908 28.3074C86.7198 30.2792 87.2291 32.2093 87.2575 34.2198C87.2738 35.3935 87.2662 36.5787 87.3534 37.7545C87.3938 38.3027 87.1659 38.4324 86.6271 38.4376C84.7927 38.4586 82.979 38.1604 81.1479 38.1447C80.5884 38.1395 80.4117 38.3027 80.331 38.8425C79.946 41.4033 79.3123 43.9139 78.5042 46.3816C78.3613 46.8178 78.0625 47.1975 77.9185 47.6453C77.7986 48.0187 77.7539 48.2091 78.2228 48.457C79.9264 49.3587 81.6648 50.1956 83.3891 51.0576C83.8351 51.2804 83.9093 51.5681 83.6563 51.9604C82.3584 53.9772 81.1217 56.0328 79.6297 57.9272C78.9077 58.8436 78.1039 59.7014 77.3416 60.5885C77.13 60.8343 76.973 60.8876 76.6741 60.6334C75.4145 59.5622 74.1112 58.5381 72.8494 57.4701C72.5102 57.1835 71.9911 57.1845 71.7457 56.7399C71.6606 56.5851 71.4076 56.7336 71.2745 56.8717C69.7738 58.4283 67.9721 59.6302 66.1628 60.8155C65.3917 61.3197 64.5683 61.7559 63.7427 62.1764C63.349 62.3773 63.2465 62.53 63.5137 62.916C64.564 64.4307 65.5695 65.9747 66.6274 67.4842C66.9099 67.887 66.8521 68.046 66.4202 68.2699C65.0646 68.9728 63.6119 69.4436 62.1821 69.9697C60.1034 70.7344 57.9069 71.0775 55.7551 71.5765C55.4094 71.6571 55.1836 71.5525 55.152 71.1445C55.0811 70.1967 55.0266 69.2427 54.8597 68.3096C54.7125 67.4863 54.755 66.6673 54.7375 65.8461C54.7266 65.2885 54.5271 64.9391 53.8705 65.0186C52.3665 65.2006 50.8397 65.0207 49.3499 65.187C47.7849 65.3617 46.2809 64.9757 44.7442 65.0029C44.5948 65.0061 44.4432 64.9067 44.2938 64.8523C43.6166 64.6065 43.4464 64.7383 43.3799 65.4214C43.2806 66.4507 42.9611 67.4414 42.7179 68.4445C42.5521 69.1266 42.3776 69.8107 42.2784 70.5022C42.2053 71.0158 41.9239 71.1382 41.4735 71.0493C39.771 70.7166 38.1548 70.1444 36.5276 69.5576C34.3747 68.7814 32.4269 67.6265 30.3405 66.7384C29.9152 66.5574 29.8083 66.2436 30.1507 65.8231C31.3657 64.3303 32.5446 62.8114 33.7541 61.3155C33.9613 61.0592 33.7879 60.9431 33.6353 60.8259C33.0245 60.3604 32.3952 59.9179 31.7823 59.4535C30.5597 58.5277 29.3197 57.6301 28.1865 56.5903C27.5005 55.9595 26.8549 55.3162 26.2834 54.5954C26.1144 54.382 25.99 54.4051 25.7752 54.5651C24.6508 55.4009 23.5056 56.2116 22.3747 57.0401C21.8817 57.4021 21.3931 57.7724 20.9274 58.1668C20.6373 58.4126 20.5075 58.1866 20.3668 58.0339C19.6808 57.2891 19.0843 56.4773 18.5608 55.6237C17.6698 54.1718 16.8191 52.6958 15.9662 51.2229C15.5812 50.5586 15.4602 49.7782 14.9443 49.1589C14.8102 48.9978 15.0217 48.7468 15.2846 48.6254C16.0895 48.2562 16.8605 47.8105 17.6828 47.4831C18.7811 47.0459 19.7986 46.459 20.8827 46.0019C21.3146 45.8188 21.1892 45.4391 21.0812 45.2016C20.1814 43.2297 20.1738 41.0842 19.7746 39.0193C19.6383 38.3121 19.6078 37.5432 19.7179 36.7963C19.7768 36.3936 19.5598 36.1321 19.129 36.1509C17.8126 36.2074 16.4973 36.3026 15.181 36.3633C14.4372 36.3967 13.6923 36.4103 12.9474 36.3957C12.5384 36.3873 12.5275 36.0421 12.6104 35.7963C12.8656 35.041 12.7336 34.2575 12.8351 33.4897C12.9736 32.4404 13.1143 31.3944 13.2789 30.3472C13.5701 28.4978 14.0566 26.6974 14.543 24.8919C14.6455 24.5111 14.8451 24.1659 14.8767 23.7527C14.9083 23.3468 15.2966 23.283 15.615 23.4441C17.2346 24.2601 18.9894 24.7779 20.6253 25.5572C21.0245 25.7476 21.2633 25.7581 21.5109 25.2695C22.6484 23.0246 23.8055 20.7829 25.3629 18.7681C25.9115 18.0578 26.5332 17.3957 27.1603 16.7461C27.5027 16.3914 27.5256 16.1362 27.157 15.792C25.7774 14.5032 24.3868 13.2249 22.9287 12.0188C22.5939 11.7416 22.6168 11.4581 22.8753 11.2259C24.6617 9.62118 26.4448 8.01021 28.4439 6.64611C29.227 6.11157 30.0417 5.61468 30.864 5.13557C31.2861 4.88974 31.6122 4.65437 32.0157 5.37303C32.8729 6.89822 33.8163 8.3847 34.6822 9.90989C34.9636 10.4057 35.2788 10.4884 35.8023 10.208C37.8657 9.09918 40.0939 8.34286 42.3558 7.76124C43.4388 7.48298 44.5436 7.06141 45.7214 7.13777C46.0693 7.16079 46.2417 7.01434 46.15 6.64298C45.7563 5.03933 45.3026 3.44719 45.1936 1.78915C45.175 1.51194 44.9853 1.26506 44.9013 0.987849C44.7486 0.485728 44.9918 0.425056 45.3975 0.278604C46.872 -0.248622 48.3858 0.191779 49.8669 0.0223131ZM50.8953 25.7978C50.9291 25.5499 50.9586 25.462 50.9498 25.3783C50.8408 24.417 50.651 23.465 50.4918 22.5142C50.3227 21.5068 50.254 20.3582 49.0882 19.7682C48.8428 19.6437 48.7195 19.3926 48.6595 19.1154C48.5898 18.7953 48.5287 18.4554 48.3684 18.176C47.7009 17.0128 47.7871 15.7931 48.0761 14.5775C48.159 14.2292 48.4163 13.8463 48.846 13.7302C49.3019 13.6078 49.3226 14.0356 49.4906 14.2679C49.6586 14.5012 49.8331 14.5493 50.0163 14.2878C50.3075 13.8725 50.6772 13.5105 50.844 13.0126C50.9106 12.8138 51.0829 12.6161 51.3708 12.6559C51.4908 12.6726 51.6206 12.7699 51.5824 12.864C51.4973 13.0743 51.4417 13.3275 51.6827 13.3714C51.963 13.4226 52.0263 13.0858 52.1691 12.9027C52.4353 12.5638 52.5541 12.1475 51.9794 12.1276C50.326 12.0701 48.6497 11.9634 47.0182 12.1558C45.1958 12.3703 43.4039 12.8379 41.6545 13.4436C39.4395 14.2103 37.3913 15.2732 35.486 16.563C33.5055 17.903 31.827 19.5893 30.3002 21.3896C29.0885 22.8186 28.1211 24.4159 27.3053 26.0823C26.6073 27.5071 26.1427 29.0145 25.6967 30.5345C25.3575 31.6894 25.1797 32.8589 25.0783 34.0263C24.954 35.4594 25.0685 36.9093 25.039 38.3519C25.027 38.9419 25.3171 39.0632 25.8177 38.9366C27.7143 38.4565 29.6174 38.0077 31.526 37.5715C34.078 36.9888 36.593 36.2524 39.1559 35.6969C39.7994 35.5578 40.432 35.3684 41.0678 35.1948C41.3895 35.1069 41.5029 34.883 41.4288 34.5839C41.3034 34.0734 41.1529 33.5681 41.0296 33.0576C40.7395 31.864 40.4505 30.6694 40.1778 29.4727C39.8714 28.1264 39.5933 26.7728 39.2814 25.4275C39.0131 24.2716 38.8407 23.123 39.3119 21.9744C39.4286 21.6898 39.2879 21.4273 39.109 21.239C38.4383 20.5371 38.0686 19.6406 37.4328 18.9146C37.0162 18.4376 37.0271 17.8298 37.1132 17.2576C37.2005 16.676 38.0621 16.2649 38.6324 16.4783C39.0512 16.6352 39.4144 16.8768 39.6773 17.2231C40.2411 17.9647 40.8213 18.6991 41.3197 19.4816C41.6556 20.0088 42.0744 20.218 42.6884 20.1688C43.2981 20.1197 43.9012 20.1469 44.4007 20.5433C45.5895 21.489 46.7695 22.443 47.9506 23.3981C48.8951 24.1649 49.8374 24.9358 50.8953 25.7978ZM28.7755 39.1804C27.8844 39.2829 27.1079 39.3979 26.3151 39.3739C25.2844 39.3425 25.2484 39.399 25.3324 40.3802C25.3455 40.5298 25.4033 40.6773 25.4535 40.8217C25.7643 41.715 26.0162 42.6324 26.2605 43.5362C26.8636 45.7602 27.9815 47.7457 29.2739 49.6098C30.7789 51.7804 32.73 53.5933 34.8862 55.22C37.7327 57.3676 40.9816 58.6155 44.4181 59.4984C45.1216 59.6794 45.8719 59.6899 46.5994 59.7882C47.0105 59.8436 47.1403 59.6062 47.0171 59.3206C46.6615 58.4984 46.7368 57.5935 46.3933 56.7629C45.9221 55.6258 45.9679 55.6112 44.6821 55.6122C42.5816 55.6143 40.4821 55.6133 38.3816 55.607C37.941 55.606 37.4993 55.5547 37.0609 55.5714C36.8526 55.5788 36.6453 55.6687 36.4828 55.4836C36.292 55.2649 36.5232 55.1028 36.6137 54.9574C37.2234 53.9762 37.8876 53.0253 38.4765 52.0325C39.7918 49.818 41.1518 47.6306 42.5292 45.4516C42.8673 44.916 43.4377 44.3982 43.3712 43.7486C43.1988 42.0686 42.6819 40.4451 42.3089 38.7975C42.2664 38.6102 42.178 38.4199 41.8847 38.4586C40.3774 38.6615 38.8495 38.7075 37.339 38.7797C34.4499 38.9178 31.5653 39.2002 28.7755 39.1804ZM74.8975 35.5787C74.8572 34.9301 74.8681 34.1811 74.7819 33.4238C74.5595 31.4697 74.0578 29.593 73.3543 27.7592C72.3859 25.234 71.016 22.942 69.2612 20.8247C67.3941 18.5725 65.1442 16.8036 62.602 15.3338C61.9356 14.9489 61.8702 14.9918 61.8702 15.7575C61.868 21.8719 61.8723 27.9862 61.8614 34.1016C61.8603 34.4667 61.9574 34.7335 62.2453 34.972C63.9052 36.3444 65.6589 37.6112 67.2469 39.0653C67.6482 39.4325 68.1728 39.4785 68.6734 39.331C70.3519 38.8372 72.0369 38.3728 73.7546 38.0234C74.8746 37.7953 74.8997 37.7692 74.8986 36.6896C74.8975 36.3538 74.8975 36.018 74.8975 35.5787ZM49.4197 54.4155C52.5225 54.4155 55.6264 54.4155 58.7292 54.4155C59.196 54.4155 59.6628 54.4187 60.1295 54.4134C60.4709 54.4103 60.761 54.2743 60.7065 53.9155C60.5156 52.6476 60.6247 51.3766 60.6323 50.1098C60.6432 48.3503 60.4982 46.5877 60.7152 44.8303C60.7512 44.5394 60.6127 44.4139 60.2942 44.5499C59.0596 45.0771 57.8251 45.6044 56.584 46.118C56.296 46.2372 56.2546 46.4329 56.2579 46.6954C56.2699 47.5229 56.2698 48.3514 56.2622 49.1799C56.2546 49.9906 56.1237 50.114 55.3014 50.114C53.2249 50.1151 51.1472 50.1559 49.0718 50.1004C47.5449 50.0596 46.0813 50.1538 44.7661 50.9896C44.6363 51.0722 44.5043 51.0712 44.3811 50.9823C44.2055 50.8557 44.3647 50.7731 44.4192 50.6622C45.1532 49.1788 45.8916 47.6976 46.6037 46.2048C47.6911 43.9254 48.7304 41.624 49.8472 39.3571C50.5452 37.9418 50.3642 38.1562 49.0794 38.1489C48.5603 38.1458 48.2255 38.2169 47.9419 38.7536C47.2908 39.9817 46.5001 41.1418 45.7596 42.327C44.8075 43.8501 43.8412 45.3648 42.8957 46.891C41.4833 49.1725 40.0862 51.4635 38.6717 53.745C38.567 53.9144 38.3532 54.0766 38.4307 54.2597C38.5387 54.517 38.8386 54.4113 39.0578 54.4124C42.5139 54.4176 45.9668 54.4155 49.4197 54.4155ZM35.7543 37.6186C35.7652 37.6656 35.7761 37.7127 35.787 37.7598C35.9495 37.7598 36.112 37.7661 36.2734 37.7587C38.1231 37.6709 39.9739 37.5903 41.8225 37.4888C43.2065 37.4135 44.597 37.3759 45.9679 37.2033C47.8154 36.971 49.6771 37.2336 51.5191 36.9658C52.0514 36.8884 52.1582 37.1551 51.9325 37.6175C50.7099 40.1135 49.4993 42.6157 48.2909 45.1179C47.7631 46.21 47.2527 47.3105 46.7303 48.4058C46.655 48.5637 46.4969 48.7332 46.7008 48.8734C46.8273 48.9612 47.0094 48.9204 47.1654 48.8483C48.4425 48.2551 49.7654 47.7645 51.0676 47.2279C52.4691 46.6494 53.8552 46.0217 55.2632 45.4684C57.1936 44.7089 59.0847 43.8637 61.0293 43.1408C62.3282 42.6575 63.5552 42.0058 64.9075 41.6533C65.0798 41.6083 65.2532 41.5309 65.1987 41.3541C65.1398 41.1606 64.9108 41.2296 64.7766 41.2652C63.8147 41.5204 62.867 41.8269 61.8985 42.055C60.2146 42.4515 58.5612 42.9609 56.8773 43.3385C55.8958 43.5582 54.9437 43.8825 53.9534 44.0478C53.7385 44.0834 53.4266 44.2664 53.251 44.0227C53.0678 43.7685 53.3165 43.5111 53.4146 43.2841C53.8312 42.3186 54.3177 41.3813 54.7245 40.4126C55.7802 37.8958 56.8359 35.3799 58.0279 32.9195C58.113 32.7449 58.1315 32.5712 58.0399 32.407C57.9265 32.204 57.7531 32.3484 57.6157 32.3798C55.573 32.8484 53.528 33.3118 51.4908 33.7993C49.9192 34.1759 48.3575 34.5933 46.787 34.9741C45.3288 35.3276 43.8685 35.676 42.4005 35.9919C40.5759 36.3852 38.7949 36.9491 36.942 37.2357C36.5352 37.2995 36.1491 37.4878 35.7543 37.6186ZM61.0238 56.2054C61.0795 56.5391 61.0576 57.0673 61.3903 57.287C61.7469 57.5224 62.0359 57.0171 62.3653 56.8581C62.4471 56.8184 62.5311 56.7828 62.6118 56.7399C64.974 55.4679 66.9797 53.7669 68.7814 51.8568C70.5438 49.9874 71.8558 47.8221 72.9442 45.5311C73.1286 45.142 73.1613 44.8575 72.725 44.5897C71.4501 43.8103 70.1872 43.0122 68.9352 42.1994C68.1368 41.6805 67.4388 41.5403 66.466 42.0121C65.2554 42.599 64.0089 43.1712 62.6859 43.5467C62.0468 43.7277 61.8004 44.0739 61.8222 44.8418C61.916 48.0836 61.8669 51.3285 61.8571 54.5724C61.856 54.972 61.7927 55.4344 61.3401 55.5725C60.9704 55.6855 61.0315 55.8926 61.0238 56.2054ZM60.8919 18.0861C60.183 18.448 60.0925 19.084 59.7664 19.5558C58.8306 20.9116 58.0312 22.3478 57.1642 23.7423C56.2644 25.19 55.3963 26.6608 54.4987 28.1117C53.7047 29.3963 52.9686 30.7144 52.0841 31.9477C51.987 32.0827 51.8332 32.2731 51.9598 32.4373C52.1004 32.6193 52.2913 32.4268 52.4582 32.4195C53.3219 32.385 54.0908 32.0021 54.9186 31.8337C56.5011 31.5115 58.0628 31.0973 59.6289 30.7092C59.7696 30.6747 59.9071 30.6046 60.0019 30.7301C60.0914 30.8483 59.9998 30.9728 59.942 31.0983C59.6835 31.6559 59.4446 32.2208 59.1971 32.7825C58.4216 34.5452 57.5895 36.2879 56.9013 38.082C56.6777 38.6636 56.199 39.1678 56.2535 39.8614C56.3004 40.4618 56.2938 41.0706 56.2524 41.6721C56.2153 42.2161 56.476 42.2705 56.922 42.1554C57.9112 41.9012 58.8895 41.5571 59.8961 41.4326C60.6759 41.3363 60.7675 41.0016 60.7654 40.3802C60.7479 35.8172 60.7545 31.2531 60.7566 26.6901C60.7566 26.0039 60.8373 25.3177 60.8624 24.6356C60.9137 23.2956 60.8134 21.9482 60.7501 20.6051C60.7141 19.7954 60.8428 18.992 60.8919 18.0861ZM49.8941 60.0529C51.2781 60.0393 52.6414 59.8384 54.0123 59.6752C56.1695 59.4179 58.1817 58.762 60.1524 57.9251C60.6443 57.717 60.8428 57.5548 60.5352 57.0213C60.3837 56.7567 60.2539 56.4156 60.2091 56.0966C60.1317 55.5401 59.7587 55.5296 59.3268 55.5599C59.0738 55.5777 58.8208 55.6091 58.5678 55.6101C55.7496 55.6133 52.9315 55.6196 50.1133 55.606C49.6117 55.6039 49.1111 55.6625 48.5974 55.5223C48.3367 55.4511 47.823 55.5223 47.9419 56.0129C48.1535 56.8885 48.135 57.7693 48.1513 58.6543C48.1775 60.0529 48.1873 60.0529 49.6138 60.0529C49.7076 60.0529 49.8014 60.0529 49.8941 60.0529ZM54.9677 20.4827C55.1193 21.4587 55.2698 22.4347 55.4246 23.4106C55.4573 23.6178 55.3014 23.9504 55.5402 24.0069C55.8631 24.0843 55.947 23.7203 56.0812 23.5017C56.8086 22.3175 57.5284 21.1281 58.257 19.9439C59.2221 18.3738 60.1972 16.8099 61.1547 15.2355C61.3259 14.9531 61.5081 14.6319 61.0031 14.4332C59.8863 13.9959 58.7783 13.5367 57.6593 13.1036C57.0889 12.8829 56.7345 13.0502 56.5927 13.6319C56.3691 14.5587 56.296 15.5064 56.2655 16.4552C56.2328 17.4501 56.3865 18.4899 55.5544 19.2964C55.2141 19.628 54.7746 19.9042 54.9677 20.4827ZM52.6316 29.0626C52.6294 28.7457 52.4647 28.6201 52.3186 28.5354C51.3708 27.9883 50.8571 27.0217 49.9857 26.3815C48.5952 25.3616 47.2407 24.2894 45.9821 23.1157C45.8719 23.0131 45.7552 22.9514 45.6102 22.9985C45.4291 23.0571 45.4619 23.2307 45.4979 23.3374C45.8392 24.3563 45.4041 25.1377 44.6832 25.8281C44.4487 26.0531 44.5021 26.1859 44.7584 26.3428C46.9364 27.6713 49.1078 29.0103 51.2901 30.3326C51.4188 30.411 51.6304 30.6328 51.7743 30.4309C52.107 29.9696 52.3818 29.4685 52.6316 29.0626ZM44.7006 33.792C44.5272 32.3568 44.3702 31.1527 44.2393 29.9466C44.127 28.9141 44.0463 27.8774 43.9503 26.8428C43.9208 26.5207 43.7409 26.4359 43.4235 26.5123C42.587 26.7131 41.7789 26.6818 41.0547 26.1702C40.9282 26.0803 40.7875 26.03 40.6708 26.0991C40.541 26.1754 40.5661 26.3449 40.5988 26.4694C40.9958 27.9559 41.3034 29.4612 41.6414 30.9592C41.8519 31.8923 42.057 32.8348 42.2576 33.7721C42.4496 34.6707 42.6088 34.8025 43.5195 34.5504C43.6515 34.5138 43.79 34.5002 43.9274 34.4866C44.5196 34.4301 44.8271 34.1717 44.7006 33.792ZM46.1784 33.9928C47.1872 33.7303 48.2069 33.4007 49.2539 33.2156C50.0097 33.0817 50.4612 32.7218 50.8299 32.113C51.1254 31.6234 51.0644 31.3912 50.5441 31.0868C48.9278 30.1411 47.353 29.1296 45.764 28.141C45.6385 28.0626 45.5589 27.8743 45.3583 28.0155C45.2012 28.1264 45.1849 28.2781 45.235 28.4339C45.4913 29.2258 45.2961 30.0522 45.4651 30.8619C45.6571 31.7856 45.6887 32.7417 45.7607 33.6863C45.7814 33.973 45.9145 34.0232 46.1784 33.9928ZM74.7547 39.2201C74.7459 38.718 74.6118 38.6563 74.1505 38.8352C73.6248 39.0391 73.1493 39.3331 72.6062 39.5141C71.6879 39.8216 70.799 40.2118 69.8971 40.5643C69.547 40.7014 69.4434 40.8614 69.8076 41.1135C70.1228 41.3321 70.4402 41.5518 70.7238 41.805C71.4828 42.4808 72.4153 42.9693 73.049 43.7768C73.1471 43.9024 73.1995 44.0792 73.3892 44.0457C73.5626 44.0154 73.603 43.8553 73.6466 43.6932C73.8636 42.8908 74.1232 42.0989 74.325 41.2934C74.5016 40.5926 74.6205 39.8781 74.7547 39.2201ZM53.4375 21.626C53.0744 21.6752 52.7123 21.7495 52.3469 21.7683C51.5944 21.807 51.4014 22.0738 51.5355 22.7976C51.6555 23.4452 51.9019 24.0624 51.9412 24.7308C51.9783 25.3417 52.1103 25.9484 52.2128 26.5552C52.3153 27.1598 52.853 27.4548 53.3241 27.6431C53.7211 27.8021 53.6306 27.163 53.8999 26.982C54.0079 26.9088 54.1039 26.7853 54.1486 26.6661C54.298 26.2644 54.7692 25.9495 54.5838 25.4599C54.1879 24.417 54.3536 23.3155 54.1857 22.2485C54.1126 21.7819 53.949 21.5497 53.4375 21.626ZM52.5858 49.0481C53.3285 49.0481 53.9556 49.0428 54.5827 49.0502C54.8466 49.0533 55.032 49.0177 55.0222 48.6966C55.0058 48.184 55.0189 47.6714 55.0178 47.1588C55.0167 46.8733 54.9131 46.7341 54.5947 46.8827C53.1463 47.5595 51.6391 48.1035 50.1482 48.683C49.9955 48.7426 49.7076 48.7845 49.7534 48.9926C49.8058 49.2322 50.0992 49.2186 50.2867 49.1663C51.0851 48.9403 51.8976 49.1077 52.5858 49.0481ZM65.0907 39.9618C65.0798 39.8666 65.0308 39.8174 64.9381 39.7683C64.0427 39.2954 63.1767 38.7787 62.3555 38.1929C62.2322 38.105 62.037 38.1144 61.8941 38.2138C61.7447 38.3173 61.7785 38.4355 61.8113 38.6102C61.9127 39.1563 61.8996 39.716 61.8233 40.2683C61.7567 40.7516 61.965 40.8258 62.4329 40.8007C63.2421 40.7568 63.9249 40.2296 64.757 40.3018C64.9631 40.3185 65.0886 40.1752 65.0907 39.9618ZM44.2208 38.4219C43.3374 38.4219 43.3603 38.4178 43.5195 39.2191C43.6558 39.9042 44.0452 40.5309 43.9765 41.2673C43.9546 41.5058 44.1346 41.76 44.2109 42.01C44.2753 42.2203 44.5141 42.2642 44.5687 42.1439C44.8108 41.6104 45.4324 41.2014 45.3168 40.5706C45.2437 40.172 45.2252 39.7839 45.2187 39.3906C45.2034 38.4219 45.211 38.4219 44.2208 38.4219ZM54.033 14.5576C53.72 14.6936 53.6218 14.8359 53.6011 15.0639C53.5749 15.3464 53.528 15.633 53.4364 15.9019C53.3765 16.0786 53.3219 16.3433 53.0984 16.3663C52.841 16.3935 52.7384 16.1498 52.6141 15.9584C52.4385 15.6864 52.504 15.3976 52.4952 15.1142C52.4898 14.9029 52.4418 14.7763 52.1811 14.7878C51.9488 14.7982 51.9281 14.9332 51.9281 15.1006C51.9281 15.4353 51.927 15.7711 51.927 16.1058C51.927 17.5045 51.927 17.5045 53.3426 17.2053C53.8225 17.1038 54.1017 16.8967 54.0461 16.3475C53.9872 15.7742 54.033 15.1916 54.033 14.5576ZM38.3522 17.6112C38.1362 17.7053 37.9835 17.79 38.1962 18.0882C38.7786 18.902 39.3272 19.7379 39.8867 20.5674C40.0579 20.8205 40.2782 20.8247 40.5203 20.6846C40.8442 20.4963 40.6119 20.3027 40.4941 20.1458C39.9325 19.3947 39.3468 18.6593 38.7917 17.9041C38.6783 17.7472 38.5997 17.6038 38.3522 17.6112ZM42.623 24.7339C43.189 24.7329 43.6602 24.3218 43.6722 23.8176C43.6874 23.2129 43.225 22.7202 42.6361 22.715C42.1889 22.7108 41.5738 23.306 41.5618 23.7559C41.5477 24.2935 42.0264 24.735 42.623 24.7339ZM53.3535 18.1363C53.0536 18.2639 52.6381 18.2524 52.24 18.3319C51.9423 18.3926 51.8889 18.6259 51.9259 18.8937C51.9728 19.2368 52.1866 19.1458 52.4189 19.1039C52.7973 19.0359 53.1823 19.0045 53.564 18.9512C53.9119 18.902 53.9043 18.652 53.8978 18.3989C53.889 18.0756 53.6371 18.1677 53.3535 18.1363ZM64.3688 38.288C64.3764 38.1458 64.4102 38.0464 64.3786 38.0203C63.6326 37.4062 62.8801 36.7984 62.1243 36.1948C62.0119 36.1049 61.9094 36.1687 61.8211 36.2545C61.6531 36.4176 61.7742 36.5317 61.892 36.6478C62.5943 37.3445 63.4548 37.8121 64.3688 38.288ZM51.0796 16.9187C50.9335 16.5944 50.976 16.1466 50.9258 15.7083C50.9117 15.5807 50.8659 15.3705 50.6783 15.3558C50.4896 15.3412 50.4645 15.5305 50.3762 15.6592C50.025 16.1759 50.6336 16.5682 50.5354 17.0494C50.4918 17.2639 50.5899 17.4856 50.8604 17.4501C51.0665 17.4239 51.1156 17.2157 51.0796 16.9187ZM48.8242 16.5787C48.9355 16.8402 49.0598 17.1655 49.2125 17.4783C49.2768 17.6101 49.4361 17.6457 49.5757 17.5955C49.7436 17.5358 49.7251 17.3653 49.6847 17.2555C49.5735 16.95 49.4404 16.6488 49.2867 16.3611C49.231 16.2565 49.1231 16.1184 48.9617 16.1634C48.7773 16.2146 48.8766 16.3862 48.8242 16.5787ZM53.7833 12.2406C53.4452 12.2186 53.1769 12.2646 53.1943 12.6444C53.2041 12.8599 53.2859 13.203 53.491 13.1423C53.7942 13.0513 54.1115 12.8055 54.1595 12.4466C54.1977 12.1548 53.9119 12.273 53.7833 12.2406ZM50.0337 18.5485C49.7785 18.5526 49.5048 18.6206 49.5898 18.855C49.6804 19.105 49.8952 19.3498 50.254 19.3623C50.5332 19.3728 50.5681 19.2085 50.5289 19.0181C50.4732 18.7514 50.3904 18.4857 50.0337 18.5485ZM55.1454 13.0408C55.1672 13.2155 55.0691 13.4708 55.4137 13.454C55.7627 13.4362 55.9579 13.2532 55.995 12.9226C56.031 12.6046 55.7867 12.6569 55.5849 12.6381C55.2709 12.6098 55.0887 12.6977 55.1454 13.0408ZM46.7499 38.4826C46.7281 38.3958 46.8251 38.1489 46.5852 38.1887C46.3725 38.2242 46.1915 38.4031 46.1882 38.6594C46.1849 38.8341 46.1991 39.0726 46.4216 39.0318C46.6376 38.9931 46.7881 38.7839 46.7499 38.4826Z" fill="white"/>
<path d="M38.4309 87.0208C38.0317 86.6809 37.5966 86.5689 37.2356 86.5365C36.0512 86.4319 34.9791 85.9674 33.8568 85.6745C32.005 85.1902 30.1869 84.573 28.4714 83.756C26.5105 82.8219 24.5441 81.8982 22.6453 80.8322C20.9658 79.8897 19.5829 78.6626 18.1651 77.4345C17.2719 76.6604 16.3907 75.9052 15.7756 74.8863C15.2652 74.0421 15.0612 73.2314 15.685 72.3819C15.9075 72.0796 15.6916 71.9457 15.5127 71.7752C14.6926 70.9917 13.8648 70.2155 13.0556 69.4226C10.8078 67.2174 8.87416 64.7811 7.28296 62.1C6.13345 60.1616 5.07774 58.1834 4.13872 56.1342C3.34911 54.4092 2.77109 52.6225 2.17125 50.8504C1.61068 49.1955 1.27586 47.46 0.954126 45.733C0.648755 44.0958 0.595315 42.4409 0.396823 40.7975C0.226687 39.3895 -0.0557822 37.9857 0.00965462 36.5693C0.0729102 35.201 0.269221 33.8369 0.446991 32.4749C0.540784 31.7521 0.680382 31.0344 0.689107 30.3043C0.704376 29.1274 1.10245 28.0092 1.24532 26.8522C1.40128 25.5854 1.95967 24.4044 2.09709 23.1334C2.14944 22.649 2.5486 22.2777 2.56387 21.7567C2.56932 21.5799 2.88015 21.605 3.09282 21.8205C4.10382 22.8415 5.16171 23.8206 6.17271 24.8416C6.51517 25.1868 6.82272 25.191 7.21098 24.9703C8.78582 24.0738 10.4697 23.3666 12.0086 22.4074C12.1351 22.3289 12.278 22.2662 12.3805 22.3771C12.4939 22.4984 12.4492 22.6616 12.3968 22.8185C11.9072 24.2956 11.4207 25.7726 11.0401 27.2811C10.593 29.0532 10.2516 30.8325 10.0139 32.6496C9.75647 34.6173 9.60705 36.5755 9.66049 38.5464C9.70521 40.2191 9.89934 41.8802 10.1469 43.5456C10.3836 45.1398 10.75 46.6933 11.1884 48.231C11.7468 50.1893 12.4699 52.0973 13.4275 53.9186C14.0862 55.1707 14.7297 56.4292 15.5138 57.6165C16.7037 59.4168 18.007 61.1324 19.4073 62.7894C20.547 64.1388 22.0444 65.1681 23.0358 66.6452C23.6782 67.6013 24.097 68.6359 24.3293 69.7385C24.4209 70.1716 24.3282 70.613 24.0566 71.0084C23.7719 71.4227 23.9148 71.7365 24.3336 72.0085C26.7406 73.5692 29.2915 74.8999 31.9635 75.9585C34.2527 76.8665 36.6401 77.5381 39.0689 78.0977C41.0178 78.5465 43.0016 78.7024 44.9528 79.0863C46.4262 79.3761 47.9607 79.2777 49.4712 79.2641C50.5443 79.2537 51.6186 79.2421 52.6907 79.2631C54.1063 79.2913 55.4881 79.0225 56.8797 78.8509C58.6978 78.6271 60.4864 78.2536 62.2521 77.7944C63.948 77.3529 65.5883 76.7682 67.2155 76.1186C69.3105 75.2827 71.2965 74.2795 73.1844 73.0828C73.7384 72.7324 74.2739 72.3558 74.8148 71.9865C75.1257 71.7752 75.1911 71.5095 74.9632 71.2051C74.4648 70.5377 74.5738 69.8619 74.8476 69.137C75.5728 67.2185 76.9219 65.7456 78.4368 64.3836C79.6681 63.2768 80.774 62.0613 81.8526 60.8185C83.1046 59.3749 84.1647 57.8048 85.155 56.1917C86.1027 54.6477 86.8956 53.0378 87.5336 51.3441C87.8946 50.3849 88.3232 49.4507 88.6536 48.4727C89.0943 47.1734 89.2611 45.8271 89.5861 44.5101C90.2492 41.8164 90.3725 39.0725 90.2765 36.3224C90.2187 34.6654 90.1172 32.9958 89.8391 31.3629C89.4891 29.3147 89.0103 27.279 88.4443 25.2757C88.1323 24.1711 87.8651 23.0267 87.2664 22.0067C87.1791 21.8582 87.202 21.7076 87.2882 21.4994C88.5479 22.2651 89.7977 23.0214 91.0443 23.783C91.6048 24.1261 92.1556 24.4849 92.7162 24.827C93.0532 25.0331 93.34 25.0582 93.7152 24.7841C94.6607 24.0937 95.4983 23.2997 96.3359 22.4994C96.8627 21.9963 97.0503 21.9942 97.2979 22.6616C97.9838 24.5163 98.7135 26.3574 98.9927 28.3345C99.093 29.0417 99.274 29.753 99.4311 30.4518C100.149 33.6486 100.04 36.882 99.8902 40.0904C99.7975 42.0706 99.5162 44.0686 99.0385 46.0384C98.6818 47.5092 98.4048 49.0082 97.9708 50.4602C97.4887 52.0712 96.8681 53.6445 96.2967 55.2314C95.8201 56.5557 95.2682 57.8539 94.6128 59.103C93.689 60.8646 92.7064 62.5948 91.5809 64.2528C89.7508 66.9486 87.5412 69.3242 85.1059 71.5179C84.7514 71.8369 84.5835 72.1068 84.9772 72.496C85.2204 72.7366 85.168 73.0828 85.0786 73.3245C84.4308 75.0882 83.3096 76.5433 81.8209 77.7442C79.9898 79.2212 78.0518 80.555 75.9458 81.6419C74.6818 82.2946 73.4134 82.939 72.0687 83.46C70.9094 83.9098 69.7489 84.3502 68.5754 84.7644C66.3877 85.5375 64.1683 86.2038 61.8769 86.6348C61.5704 86.6924 61.2607 86.7488 60.8964 87.047C61.2727 87.047 61.5148 87.047 61.758 87.047C69.4818 87.0459 77.2055 87.0449 84.9281 87.0449C85.8791 87.0449 85.8737 87.0459 85.6905 87.9477C85.6512 88.1422 85.6665 88.3483 85.6665 88.5492C85.6643 90.9708 85.6643 93.3925 85.6632 95.8142C85.6632 96.7086 85.6643 96.7086 84.758 96.7086C70.2452 96.7086 55.7313 96.7086 41.2185 96.7086C32.7946 96.7086 24.3718 96.7086 15.9479 96.7086C14.9729 96.7086 15.0525 96.6992 14.9303 95.7504C14.77 94.5014 14.8747 93.2576 14.8464 92.0127C14.8147 90.5911 14.8311 89.1695 14.8409 87.7479C14.8453 87.1704 15.2008 87.0365 15.7603 87.0386C20.824 87.0543 25.8866 87.0459 30.9504 87.0459C33.2603 87.0459 35.5702 87.048 37.8801 87.047C38.0317 87.047 38.1822 87.0334 38.4309 87.0208ZM70.6149 95.6416C74.9534 95.6416 79.2929 95.6416 83.6314 95.6416C83.8179 95.6416 84.0076 95.6604 84.1909 95.6332C84.4995 95.5862 84.7547 95.3958 84.6664 95.0945C84.4537 94.3654 84.5573 93.63 84.5704 92.903C84.5977 91.4803 84.4242 90.0534 84.6696 88.6318C84.7307 88.2751 84.4853 88.1035 84.0676 88.1046C79.0475 88.1171 74.0274 88.1182 69.0073 88.114C67.5088 88.1129 66.0125 88.1433 64.5151 88.2312C63.4277 88.295 62.3371 88.1632 61.2498 88.137C59.5005 88.0962 57.7435 88.1872 55.9963 88.1893C54.6996 88.1914 53.3865 88.183 52.0821 88.1433C50.3 88.0899 48.5125 88.0941 46.7239 88.2165C45.0607 88.3295 43.3823 88.2448 41.7104 88.1328C40.8619 88.0763 40.0014 88.2071 39.1463 88.2406C37.903 88.2897 36.6641 88.1119 35.4153 88.2291C34.7533 88.2908 34.0684 87.9665 33.4152 88.1318C32.3398 88.4048 31.2634 88.1883 30.1957 88.2081C25.975 88.2897 21.7521 88.2416 17.5293 88.2416C17.3199 88.2416 17.0996 88.2688 16.9033 88.2176C16.2653 88.0544 16.0733 88.3295 16.0798 88.8933C16.0929 90.1465 16.0875 91.3997 16.0831 92.6529C16.0809 93.4354 16.1082 94.221 16.046 94.9993C16.0024 95.5412 16.2107 95.8205 16.7637 95.7724C17.3428 95.7222 17.923 95.6583 18.5043 95.6552C20.8666 95.6416 23.2288 95.65 25.5911 95.65C28.4441 95.6489 31.2961 95.6385 34.1491 95.6489C35.7829 95.6552 37.4221 95.7357 39.0493 95.7127C40.4496 95.6929 41.8554 95.7483 43.2612 95.6761C44.6179 95.606 45.9943 95.6688 47.3619 95.7201C48.6554 95.7682 49.9783 95.7023 51.287 95.6625C53.4835 95.5956 55.6833 95.6437 57.8809 95.6437C62.1245 95.6406 66.3691 95.6416 70.6149 95.6416ZM49.8049 86.9152C50.6207 86.8388 51.6437 86.8576 52.6601 86.821C55.0867 86.7321 57.4697 86.4078 59.8418 85.9674C61.4559 85.6683 63.0886 85.4046 64.6569 84.9475C66.2677 84.4789 67.8513 83.9046 69.4305 83.3229C72.0665 82.3532 74.6142 81.2381 77.0004 79.7914C79.1446 78.4911 81.2876 77.1699 82.8265 75.1844C84.3555 73.2104 84.12 72.361 82.7458 71.1716C81.8624 70.4069 80.847 69.7824 79.908 69.0753C79.5808 68.8284 79.3376 68.8619 79.065 69.1318C78.6953 69.4989 78.2852 69.8243 77.886 70.1611C77.4585 70.522 76.8118 70.8411 76.7551 71.3766C76.6973 71.9185 76.381 72.1612 76.0451 72.4123C75.2871 72.9793 74.4964 73.5065 73.7024 74.0274C71.8658 75.2315 69.8733 76.1583 67.8633 77.0579C66.6396 77.6061 65.3701 78.0538 64.0876 78.4105C61.9652 79.0016 59.8222 79.5298 57.6202 79.8437C56.2777 80.0351 54.9253 80.2652 53.5861 80.2903C50.938 80.3405 48.2802 80.488 45.6344 80.1899C43.9494 80.0006 42.2655 79.8269 40.5903 79.5434C38.9413 79.2641 37.3403 78.8405 35.7458 78.3896C34.2669 77.9712 32.8404 77.3958 31.4041 76.8477C28.3809 75.6938 25.6271 74.1143 23.0052 72.2867C22.5319 71.9562 22.4174 71.3997 21.8743 71.1089C21.221 70.7595 20.6582 70.2333 20.1118 69.7291C19.7563 69.4006 19.5415 69.4058 19.2012 69.7385C18.2523 70.6653 17.4726 71.7083 16.7004 72.77C16.2314 73.4144 16.3612 73.9082 16.7495 74.4542C17.5609 75.5945 18.6602 76.4805 19.7138 77.3895C20.3529 77.9419 20.9462 78.5559 21.6943 79.0068C23.5484 80.1261 25.4351 81.1774 27.4124 82.0885C30.091 83.3219 32.8273 84.3732 35.7196 85.0783C38.0066 85.6358 40.2849 86.1421 42.6374 86.4225C44.956 86.6986 47.267 86.9371 49.8049 86.9152ZM1.36856 39.9021C1.27368 40.5046 1.47871 41.2955 1.56378 42.0853C1.70447 43.3939 2.04038 44.6816 2.20724 45.9882C2.47335 48.0647 3.03502 50.0878 3.71011 52.0492C4.33503 53.8631 5.08537 55.6572 5.92078 57.4135C6.94814 59.5716 8.13255 61.6408 9.5209 63.5823C11.3128 66.0866 13.3511 68.4225 15.7003 70.476C16.6633 71.317 16.7615 71.6298 17.7561 70.3504C17.8663 70.2082 18.0168 70.0942 18.1455 69.9655C19.1565 68.9508 20.1609 67.9288 21.1839 66.9245C21.4555 66.6578 21.4675 66.4632 21.1861 66.1996C20.5895 65.6399 20.0301 65.0468 19.4673 64.4558C18.0211 62.9358 16.7309 61.3039 15.5302 59.6072C13.5791 56.8497 11.9639 53.9186 10.8449 50.7563C10.6028 50.0711 10.2821 49.4099 10.0924 48.7153C9.78155 47.5772 9.56888 46.414 9.29623 45.2654C8.97886 43.9326 8.69421 42.5895 8.68767 41.2212C8.68112 39.9628 8.57097 38.7096 8.65059 37.4459C8.76401 35.6247 8.55461 33.7992 8.9276 31.9759C9.41293 29.6003 9.61469 27.1671 10.6039 24.9013C10.6508 24.7946 10.6246 24.6272 10.5679 24.5215C10.5123 24.418 10.3552 24.442 10.256 24.5006C9.20898 25.1209 8.10419 25.6461 7.05175 26.2507C6.56533 26.53 6.33194 26.4683 5.99603 26.1346C5.2675 25.4107 4.51716 24.7067 3.77554 23.9943C3.42873 23.6616 3.18007 23.6805 3.05465 24.1753C3.02302 24.3018 2.94232 24.4211 2.92487 24.5487C2.71547 26.0906 2.26177 27.5855 2.01856 29.1295C1.61831 31.6705 1.39037 34.2124 1.2366 36.7691C1.1777 37.7545 1.44381 38.7179 1.36856 39.9021ZM98.7931 36.8423C99.0843 34.6058 98.5924 32.3044 98.2303 30.0114C97.9304 28.1148 97.3251 26.2622 96.8376 24.3939C96.7035 23.8792 96.397 23.8039 96.0044 24.1533C95.2562 24.8197 94.4917 25.4714 93.7773 26.1702C93.4622 26.4787 93.2506 26.462 92.9038 26.2361C91.8819 25.5697 90.836 24.9358 89.7944 24.2966C89.6548 24.2108 89.5632 23.9702 89.3287 24.1167C89.0953 24.2631 89.2775 24.464 89.3244 24.5916C89.7661 25.8093 90.0671 27.0541 90.3605 28.3146C91.005 31.0867 91.2439 33.8892 91.4053 36.7094C91.4816 38.0495 91.185 39.379 91.2798 40.7128C91.3551 41.7725 91.0704 42.7924 90.9167 43.8071C90.632 45.6848 90.1369 47.5354 89.5076 49.3524C88.7649 51.4969 87.9426 53.5985 86.792 55.5756C85.1201 58.4502 83.1995 61.1428 80.8503 63.5635C79.9953 64.4443 79.0922 65.2644 78.1772 66.0782C77.7497 66.459 77.693 66.7352 78.2481 67.049C78.6015 67.2488 78.9025 67.5333 79.2286 67.7771C80.57 68.7824 81.9267 69.7678 83.2464 70.7992C83.8037 71.2354 84.1832 70.9467 84.5322 70.6005C85.4832 69.6538 86.5019 68.775 87.3885 67.7624C89.1771 65.7194 90.7433 63.5383 92.1327 61.2296C93.5123 58.9398 94.6357 56.5526 95.5452 54.0525C96.3043 51.9655 97.0797 49.8932 97.4985 47.7132C97.7592 46.3543 98.1234 45.0195 98.2979 43.6397C98.5826 41.4168 98.9839 39.2085 98.7931 36.8423Z" fill="white"/>
<path d="M43.2434 23.8561C43.1856 24.1218 43.0035 24.3551 42.6512 24.3101C42.3731 24.2745 42.0154 24.2097 42.0056 23.8414C41.9958 23.4554 42.3589 23.3163 42.6501 23.3017C42.9195 23.2881 43.2521 23.4105 43.2434 23.8561Z" fill="white"/>
<path d="M46.6128 89.0735C47.1254 89.0902 47.7122 89.0504 48.3022 89.2638C49.0449 89.5327 49.4528 90.0798 49.4964 90.7367C49.5335 91.2912 49.2085 91.8236 48.5323 92.0401C48.191 92.1489 48.0961 92.3864 48.4483 92.6563C48.9795 93.0622 49.3067 93.6302 49.6818 94.1585C49.9261 94.5016 49.6829 94.7024 49.4004 94.6585C48.9315 94.5853 48.396 94.5779 48.1397 94.0246C47.9652 93.648 47.6936 93.3101 47.4504 92.9649C47.3359 92.8017 47.2127 92.6165 47.0436 92.5224C46.7982 92.3854 46.5103 92.2839 46.2126 92.4136C45.9138 92.5433 46.0664 92.8038 46.0534 93.0036C46.0294 93.3812 46.0523 93.762 46.0457 94.1417C46.0381 94.5936 45.6738 94.7192 45.3368 94.6637C45.0391 94.6156 44.8035 94.4974 44.8613 93.9859C44.9976 92.7724 44.9235 91.5359 44.9333 90.3089C44.9442 88.905 44.7752 89.085 46.2508 89.0735C46.3435 89.0724 46.4373 89.0735 46.6128 89.0735ZM47.0131 90.1195C47.0131 90.1258 47.012 90.131 47.012 90.1373C46.8964 90.1373 46.7775 90.1509 46.6641 90.1352C46.1919 90.0662 45.9901 90.221 46.037 90.7085C46.0752 91.1133 45.9759 91.5506 46.6477 91.4909C46.9695 91.4617 47.3087 91.5265 47.6173 91.4575C47.9194 91.3895 48.2357 91.2472 48.2946 90.8779C48.3502 90.5233 48.0754 90.3183 47.83 90.2011C47.5988 90.0902 47.2879 90.1405 47.0131 90.1195Z" fill="white"/>
<path d="M20.1501 91.9033C20.1501 91.1669 20.1545 90.4305 20.149 89.694C20.1458 89.3206 20.3246 89.0779 20.7129 89.0779C21.6541 89.0768 22.5898 89.013 23.5223 89.3101C24.1941 89.5245 24.5049 89.9534 24.6096 90.5361C24.7231 91.1669 24.5442 91.7276 23.8648 92.0247C23.495 92.1868 23.3772 92.3605 23.711 92.7088C24.108 93.1231 24.4253 93.6074 24.7983 94.0447C24.939 94.211 24.9379 94.3669 24.8518 94.5269C24.7667 94.6838 24.6053 94.7079 24.4286 94.6755C23.904 94.5803 23.4721 94.4097 23.2115 93.8867C22.9977 93.4578 22.6313 93.1001 22.3433 92.7036C22.1023 92.372 21.7522 92.3626 21.4087 92.4347C21.0248 92.5153 21.1306 92.8479 21.1306 93.1001C21.1295 93.3637 21.1088 93.6482 21.1993 93.8867C21.3094 94.1754 21.1895 94.3742 21.0215 94.5384C20.8525 94.7027 20.6234 94.6315 20.3911 94.5771C20.0171 94.4893 20.1643 94.2309 20.1588 94.0447C20.1392 93.3323 20.1501 92.6178 20.1501 91.9033ZM22.0663 91.4818C22.3543 91.4818 22.5647 91.5006 22.7709 91.4776C23.0904 91.442 23.4274 91.397 23.5049 91.0121C23.5921 90.5832 23.3336 90.3614 22.9595 90.2055C22.6225 90.0654 22.2735 90.1783 21.9344 90.1302C21.2909 90.0392 21.0924 90.2882 21.1055 90.9096C21.1251 91.7443 21.7381 91.4054 22.0663 91.4818Z" fill="white"/>
<path d="M54.1256 93.4994C54.42 94.0946 54.287 94.6385 53.6217 94.6417C52.8561 94.6459 53.0251 94.0213 53.0284 93.4722C53.0371 92.2325 53.1735 90.9867 52.9455 89.746C52.8692 89.3328 53.1844 89.0786 53.6075 89.0807C54.0732 89.0828 54.3175 89.3642 54.2935 89.8109C54.275 90.1655 54.2074 90.517 54.1703 90.8705C54.1539 91.0275 54.1485 91.2084 54.3295 91.2764C54.4877 91.3361 54.5945 91.1823 54.6491 91.0819C54.9555 90.5212 55.5412 90.1927 55.8902 89.6602C56.1923 89.1989 56.6765 88.9897 57.2654 89.0661C57.4214 89.0859 57.6243 89.0179 57.6995 89.1947C57.7737 89.3705 57.6646 89.5295 57.5305 89.6592C57.0539 90.1174 56.5849 90.585 56.0941 91.0295C55.8695 91.2335 55.8258 91.3633 56.0429 91.6279C56.6373 92.3508 57.056 93.1939 57.7006 93.8895C57.8533 94.0548 58.055 94.2787 57.8849 94.5433C57.7224 94.7965 57.477 94.6124 57.2654 94.6281C56.285 94.7034 56.1476 93.8665 55.7255 93.3403C55.659 93.2577 55.6655 93.1123 55.5892 93.0495C55.3274 92.833 55.3918 92.219 54.8323 92.3884C54.287 92.5537 54.2673 93.0746 54.1256 93.4994Z" fill="white"/>
<path d="M33.3057 91.949C33.4192 93.8268 31.9305 94.9691 29.9161 94.6898C28.8626 94.5444 27.7523 93.0568 27.9312 92.0275C28.0206 91.517 27.9966 91.0044 28.2584 90.4929C28.9378 89.1665 30.1659 88.8955 31.227 89.0985C32.4005 89.3234 33.2959 90.5023 33.3047 91.6802C33.3057 91.7702 33.3057 91.8591 33.3057 91.949ZM29.1058 91.8737C29.1058 92.0076 29.1047 92.1415 29.1058 92.2754C29.1189 93.3728 30.2695 94.0736 31.2827 93.6008C31.9959 93.2681 32.3711 92.1813 32.0886 91.2942C31.8999 90.7 31.6578 90.2084 30.8878 90.1215C29.8005 89.9981 28.9084 90.6948 29.1058 91.8737Z" fill="white"/>
<path d="M61.144 91.9097C61.1211 91.1774 61.217 90.4441 61.1232 89.7087C61.0774 89.351 61.2203 89.033 61.7602 89.056C62.6905 89.0957 63.624 89.0696 64.5554 89.0654C64.9742 89.0633 65.3352 89.2171 65.3199 89.6334C65.3068 89.9912 65.0102 90.1711 64.5772 90.1408C63.9981 90.1 63.4124 90.146 62.8311 90.1251C62.3873 90.1094 62.2727 90.3134 62.2804 90.6973C62.288 91.0655 62.2967 91.3699 62.8191 91.35C63.4004 91.3281 63.9839 91.3532 64.5663 91.3427C64.9055 91.3364 65.0898 91.4452 65.0909 91.8009C65.092 92.1419 64.9404 92.2873 64.587 92.2821C64.0275 92.2727 63.467 92.3093 62.9097 92.2727C62.3284 92.234 62.276 92.5353 62.2771 92.9757C62.2782 93.3962 62.3447 93.664 62.8813 93.6378C63.5324 93.6064 64.1857 93.641 64.8379 93.6263C65.2283 93.618 65.3614 93.7759 65.3777 94.1441C65.3952 94.5416 65.1858 94.5668 64.8662 94.5678C63.8214 94.5709 62.7755 94.6023 61.7307 94.6086C61.3108 94.6107 61.1243 94.4025 61.1385 93.983C61.1603 93.2926 61.144 92.6012 61.144 91.9097Z" fill="white"/>
<path d="M38.0608 91.3705C38.0608 91.8842 38.0532 92.3988 38.063 92.9125C38.075 93.4962 38.4513 93.7974 39.1133 93.7692C39.7349 93.743 40.0643 93.3832 40.0512 92.8277C40.0272 91.7785 40.0381 90.7282 40.037 89.678C40.0359 89.3087 40.2181 89.0963 40.6161 89.0733C40.9673 89.0524 41.2716 89.203 41.2651 89.5263C41.2378 90.791 41.3981 92.0557 41.1745 93.3215C41.0251 94.1709 40.3849 94.4774 39.6902 94.673C39.2649 94.7933 38.7534 94.7494 38.3062 94.6625C37.2854 94.4648 36.8481 93.8466 36.8088 92.7398C36.7739 91.7649 36.9179 90.7858 36.6823 89.816C36.5634 89.3296 36.9004 89.0974 37.3421 89.088C37.7653 89.0796 38.0968 89.2459 38.0706 89.7627C38.0423 90.2972 38.0641 90.8349 38.0641 91.3705C38.063 91.3705 38.0619 91.3705 38.0608 91.3705Z" fill="white"/>
<path d="M80.4187 94.5702C80.0064 94.4907 79.5854 94.4624 79.4993 93.8913C79.4284 93.4258 79.0892 93.3536 78.5745 93.2918C77.582 93.1726 76.9702 93.3473 76.6604 94.3285C76.5743 94.6005 76.1086 94.6507 75.7912 94.5126C75.4498 94.3641 75.6385 94.1099 75.7269 93.886C76.2994 92.4362 76.8644 90.9842 77.4435 89.5375C77.5525 89.2655 77.6987 89.0343 78.0946 89.0563C78.4763 89.0772 78.7773 89.1734 78.9158 89.528C79.2506 90.3879 79.6749 91.2091 79.9661 92.092C80.1744 92.7238 80.4874 93.3494 80.7949 93.9582C81.0131 94.3902 80.8615 94.5283 80.4187 94.5702ZM78.208 92.4226C78.8155 92.4278 78.9932 92.2813 78.7795 91.8639C78.6333 91.5794 78.5079 91.321 78.5243 90.9999C78.533 90.8252 78.4174 90.7164 78.2353 90.6808C77.9681 90.6285 77.9517 90.8607 77.8699 90.9967C77.7543 91.1892 77.8623 91.4204 77.7412 91.6359C77.3955 92.2541 77.5046 92.4163 78.208 92.4226Z" fill="white"/>
<path d="M68.8751 91.7466C68.8751 91.0541 68.8914 90.3605 68.8696 89.668C68.8565 89.2548 68.9765 89.0477 69.4553 89.055C69.9068 89.0623 69.9984 89.2747 69.994 89.6471C69.982 90.6973 70.0366 91.7508 69.9733 92.7979C69.9297 93.5071 70.2023 93.7101 70.8905 93.6389C71.3507 93.5919 71.8219 93.64 72.2876 93.6274C72.6638 93.617 72.7904 93.8523 72.7675 94.1275C72.7456 94.3921 72.593 94.6536 72.2396 94.6118C71.3355 94.5051 70.4281 94.572 69.524 94.5731C69.0474 94.5741 68.8489 94.4381 68.8685 93.959C68.898 93.2226 68.8751 92.4841 68.8751 91.7466Z" fill="white"/>
<path d="M25.7523 78.8421C25.7523 78.5063 25.7567 78.1705 25.7501 77.8347C25.7479 77.7113 25.7883 77.5533 25.5909 77.5167C25.4175 77.4843 25.3521 77.5941 25.2866 77.7238C25.0674 78.1569 24.8558 78.5941 24.6093 79.0115C24.4054 79.3578 24.1229 79.5701 23.714 79.2427C23.5613 79.1203 23.498 79.0136 23.6332 78.7971C24.2167 77.8608 24.7773 76.911 25.3172 75.9497C25.4731 75.6714 25.6912 75.4151 25.9693 75.4454C26.194 75.4695 26.3751 75.7394 26.4678 76.0281C26.7022 76.7551 26.5103 77.4916 26.5932 78.2165C26.6128 78.3891 26.4623 78.6559 26.7731 78.7082C27.0654 78.7573 27.06 78.4676 27.1494 78.3117C27.3904 77.8954 27.6303 77.4748 27.8267 77.0376C27.987 76.6819 28.2367 76.6087 28.5399 76.7886C28.8333 76.9623 28.8747 77.1694 28.6457 77.5062C28.059 78.3703 27.5398 79.2772 27.0174 80.179C26.8669 80.4374 26.711 80.7752 26.4034 80.6811C26.086 80.5838 25.749 80.3474 25.7578 79.9143C25.7654 79.5565 25.7589 79.1977 25.7589 78.84C25.7578 78.8421 25.7545 78.8421 25.7523 78.8421Z" fill="white"/>
<path d="M72.7685 81.1325C71.4979 81.2214 70.6647 79.759 70.5643 78.6114C70.4782 77.6208 71.7062 76.6145 72.8557 76.5632C73.8962 76.5161 75.1526 77.8813 75.1613 79.1303C75.1678 80.122 73.9463 81.1346 72.7685 81.1325ZM72.811 77.5015C71.9778 77.4974 71.5284 77.897 71.5241 78.6439C71.5197 79.3824 72.2831 80.3186 72.8993 80.3312C73.557 80.3448 74.1874 79.7506 74.1885 79.1177C74.1885 78.2851 73.5243 77.5057 72.811 77.5015Z" fill="white"/>
<path d="M63.5959 84.4865C63.212 84.5043 63.0572 84.4143 62.9874 84.1361C62.7027 82.9896 62.4028 81.8441 61.948 80.7457C61.8139 80.4225 62.0614 80.298 62.2327 80.2446C63.079 79.9852 63.9384 79.7687 64.7967 79.5459C65.0475 79.481 65.1915 79.662 65.3017 79.8283C65.45 80.0522 65.2144 80.1714 65.0835 80.2457C64.6069 80.5177 64.0551 80.6055 63.524 80.7164C63.1924 80.7855 62.8892 80.797 63.0288 81.2259C63.1477 81.593 63.3985 81.8274 63.8119 81.616C64.2067 81.4131 64.6615 81.4173 65.0486 81.228C65.3518 81.0794 65.5187 81.1589 65.6539 81.4278C65.8241 81.7646 65.559 81.864 65.3311 81.9456C64.8425 82.1203 64.3397 82.2531 63.85 82.4362C63.2306 82.6674 63.657 82.9665 63.6963 83.227C63.753 83.5942 63.9864 83.6224 64.3081 83.4624C64.7782 83.2291 65.2973 83.1266 65.8121 83.0272C66.1316 82.9655 66.413 83.1297 66.4413 83.408C66.4675 83.6601 66.2112 83.8034 65.9157 83.8243C65.2199 83.8745 64.6135 84.2344 63.9406 84.3714C63.7857 84.4028 63.6406 84.4708 63.5959 84.4865Z" fill="white"/>
<path d="M31.7887 82.8803C30.8202 82.9222 29.6641 82.1094 29.6805 81.4608C29.687 81.1857 29.4864 80.7662 29.963 80.6919C30.3861 80.626 30.6042 80.9796 30.6173 81.3039C30.6402 81.8552 31.0612 81.9347 31.4407 82.0529C31.733 82.1439 32.082 82.1366 32.2293 81.8144C32.347 81.557 32.1038 81.3771 31.9228 81.2202C31.5858 80.9283 31.2204 80.6647 30.8987 80.3593C30.5072 79.9879 30.3141 79.5381 30.6697 79.0559C31.022 78.5757 31.4593 78.2096 32.1518 78.445C32.8018 78.6646 33.4758 78.8299 33.743 79.5684C33.8401 79.8362 33.9862 80.1061 33.6787 80.2735C33.321 80.4681 33.069 80.2442 32.8967 79.9429C32.7767 79.7348 32.7288 79.491 32.4528 79.3801C32.142 79.2557 31.7919 79.0988 31.576 79.4126C31.3775 79.7013 31.6829 79.9408 31.9032 80.1187C32.2314 80.3833 32.6426 80.5214 32.9087 80.898C33.2184 81.3374 33.2697 81.7485 33.0265 82.1941C32.7713 82.6596 32.3667 82.9222 31.7887 82.8803Z" fill="white"/>
<path d="M53.3271 83.1262C53.3271 82.7454 53.3271 82.3657 53.3271 81.9849C53.3271 81.7391 53.2922 81.4357 53.6521 81.4294C54.0153 81.4232 54.2672 81.6585 54.2825 82.0037C54.3141 82.7454 54.301 83.4902 54.3021 84.2329C54.3043 85.5322 52.8581 86.3617 51.5919 85.8272C51.0455 85.597 50.7042 85.2278 50.6933 84.7037C50.6758 83.8354 50.4544 82.9829 50.5199 82.1094C50.5417 81.8165 50.5809 81.6502 50.9419 81.6711C51.2528 81.6889 51.5036 81.7182 51.5025 82.0979C51.4992 82.7914 51.4949 83.486 51.5047 84.1796C51.5145 84.8428 51.8384 85.1776 52.4361 85.1692C53.1188 85.1587 53.3217 84.9401 53.3271 84.2005C53.3293 83.8428 53.3271 83.4839 53.3271 83.1262Z" fill="white"/>
<path d="M77.662 73.3713C77.8474 73.3776 77.9489 73.5167 78.0383 73.636C78.1681 73.8086 78.1212 74.0105 77.9271 74.09C77.5094 74.2636 77.3043 74.6706 76.9041 74.8735C76.5812 75.0357 76.5158 75.3652 76.8005 75.6382C77.0382 75.8662 77.3021 76.0137 77.6097 75.6623C77.8136 75.43 78.1146 75.2804 78.3437 75.066C78.5563 74.8662 78.7298 74.7522 78.9566 75.043C79.1616 75.3055 79.1551 75.5482 78.8759 75.7323C78.4996 75.9792 77.9412 76.1288 77.8682 76.5703C77.7896 77.0483 78.3862 77.2502 78.672 77.5818C78.9795 77.9385 78.6676 78.0934 78.4735 78.2973C78.2357 78.5474 78.0165 78.4679 77.8322 78.2429C77.0818 77.3234 76.3871 76.361 75.5506 75.5053C75.3739 75.3254 75.3805 75.0775 75.5931 74.9122C76.2344 74.4132 76.8888 73.9299 77.5388 73.4414C77.577 73.4132 77.6195 73.3954 77.662 73.3713Z" fill="white"/>
<path d="M38.7385 81.1779C37.939 80.8714 37.8289 81.4603 37.8158 81.8704C37.7929 82.6141 37.3359 83.2439 37.3316 83.9856C37.3305 84.268 37.0622 84.4218 36.7274 84.3569C36.3304 84.2806 36.3075 83.9552 36.4165 83.7355C36.7732 83.0137 36.6347 82.1748 37.0622 81.4697C37.3403 81.0115 37.1691 80.6852 36.5976 80.6015C36.2769 80.5544 35.8723 80.5356 35.9945 80.0858C36.121 79.6202 36.5616 79.7803 36.8702 79.8452C37.5137 79.9791 38.1441 80.1694 38.7799 80.341C39.106 80.4289 39.539 80.4655 39.4495 80.9268C39.3601 81.3819 38.9184 80.9728 38.7385 81.1779Z" fill="white"/>
<path d="M46.3917 81.4137C46.8803 81.3478 47.4681 81.4848 48.0647 81.5392C48.3242 81.5633 48.442 81.6271 48.4311 81.8917C48.4213 82.1491 48.3526 82.3321 48.0483 82.3405C47.9327 82.3436 47.8127 82.3457 47.7015 82.3217C47.2184 82.2192 46.9937 82.4284 47.033 82.8719C47.1049 83.6763 46.8705 84.4599 46.8835 85.2591C46.889 85.6001 46.6949 85.8532 46.3491 85.8083C46.0241 85.7654 45.9576 85.5499 46.0143 85.1723C46.1419 84.3218 45.9991 83.4462 46.1845 82.5874C46.263 82.2233 46.0481 82.0497 45.6588 82.0758C45.5203 82.0853 45.3796 82.0737 45.24 82.0758C45.0012 82.079 44.8136 81.9984 44.8092 81.7484C44.8037 81.4974 44.9859 81.4105 45.2269 81.4116C45.5759 81.4147 45.9249 81.4137 46.3917 81.4137Z" fill="white"/>
<path d="M59.4296 80.7409C59.8266 80.7242 60.0218 80.8016 60.0436 81.0914C60.0632 81.3592 59.9444 81.5359 59.6521 81.5276C58.9541 81.5067 58.6705 81.7326 58.9105 82.445C59.1591 83.1814 58.9726 83.9817 59.1984 84.7328C59.2998 85.0707 59.0675 85.2495 58.7698 85.2736C58.447 85.2998 58.2605 85.0801 58.2397 84.7788C58.1917 84.0727 58.05 83.3771 58.0805 82.6615C58.11 81.9554 57.8613 81.8058 57.1262 81.9188C56.8427 81.9628 56.4784 82.037 56.4217 81.6029C56.3672 81.1918 56.6562 81.1604 56.9953 81.1311C57.8591 81.0537 58.736 81.0412 59.4296 80.7409Z" fill="white"/>
<path d="M21.1284 77.3677C20.8547 77.3833 20.7271 77.2107 20.6148 77.0465C20.5111 76.8948 20.5973 76.7609 20.714 76.6312C21.4927 75.763 22.267 74.8916 22.9519 73.9511C23.1679 73.6541 23.4384 73.5421 23.747 73.8099C24.0742 74.0924 23.9073 74.3319 23.6685 74.6029C22.9421 75.4261 22.2376 76.2661 21.5429 77.1145C21.4185 77.2662 21.3193 77.3886 21.1284 77.3677Z" fill="white"/>
<path d="M41.1574 84.6195C41.3526 83.5901 41.4529 82.5419 41.4453 81.4812C41.4431 81.1674 41.6383 80.9393 42.0288 81.0094C42.4127 81.0785 42.633 81.3264 42.5163 81.6706C42.1847 82.6476 42.2262 83.6633 42.1324 84.6624C42.0975 85.0253 41.9197 85.2398 41.6209 85.2262C41.3319 85.2136 41.033 85.0274 41.1574 84.6195Z" fill="white"/>
<path d="M8.87825 56.9608C9.54244 56.6334 10.1575 56.3415 10.7585 56.0267C11.0202 55.8896 11.2874 55.9011 11.4128 56.1177C11.5404 56.3374 11.5492 56.6146 11.1925 56.7683C10.4651 57.0832 9.75402 57.4326 9.03421 57.7663C8.7681 57.8897 8.47037 57.9692 8.23588 58.1335C7.95123 58.3333 7.66767 58.508 7.40593 58.2004C7.15618 57.9086 7.15509 57.4975 7.39502 57.2161C7.84108 56.6899 8.05702 56.012 8.61978 55.5633C8.69394 55.5036 8.87498 55.3362 8.68849 55.1731C8.54562 55.0496 8.40057 55.0622 8.24461 55.1521C7.77455 55.4241 7.31104 55.7066 6.8279 55.9555C6.55307 56.0968 6.32949 56.0455 6.13863 55.7442C5.94123 55.4314 6.10591 55.2233 6.32622 55.1521C7.47682 54.7808 8.46055 54.0705 9.61006 53.7044C9.8031 53.6426 10.0278 53.3707 10.1695 53.7002C10.2742 53.946 10.6069 54.1333 10.332 54.5214C9.9067 55.1208 9.53699 55.7568 9.01458 56.2871C8.815 56.4869 8.72993 56.6826 8.87825 56.9608Z" fill="white"/>
<path d="M3.56153 28.6326C4.54854 28.7927 5.47229 28.9422 6.39604 29.0929C6.53127 29.1148 6.66651 29.1672 6.79957 29.1609C7.16492 29.1462 7.57063 29.1546 7.64806 29.5521C7.72768 29.9601 7.31543 30.2478 7.00896 30.3252C6.30007 30.5051 5.70132 30.9392 4.97606 31.0679C4.83319 31.093 4.58344 31.1443 4.6107 31.3943C4.64124 31.6819 4.88554 31.5606 5.04586 31.5836C5.60971 31.6662 6.17683 31.7311 6.74067 31.8179C6.98715 31.8556 7.30997 31.888 7.24126 32.2311C7.17583 32.5575 6.88573 32.7301 6.55745 32.6381C5.45048 32.3305 4.27589 32.4655 3.17109 32.1307C2.91698 32.0533 2.67487 32.0679 2.64651 31.7311C2.62033 31.4236 2.74357 31.1871 3.01077 31.0679C3.56808 30.8168 4.14392 30.6024 4.71431 30.3796C4.86046 30.322 5.01859 30.2959 5.16583 30.2404C5.3436 30.1735 5.54645 30.0532 5.51373 29.8733C5.47556 29.6651 5.23126 29.6975 5.04695 29.6965C4.518 29.6933 3.97924 29.754 3.47538 29.5437C3.20272 29.4297 3.00859 29.2393 3.08275 28.9182C3.14601 28.6316 3.38267 28.6211 3.56153 28.6326Z" fill="white"/>
<path d="M6.39981 52.529C5.10198 52.6545 4.23822 51.4975 4.24913 50.4933C4.26548 49.0079 5.25249 48.3206 6.89277 48.2463C8.0052 48.195 8.9464 49.2453 8.94422 50.4682C8.94313 51.644 7.85251 52.5269 6.39981 52.529ZM6.44235 51.5917C6.55904 51.5917 6.67792 51.6095 6.79025 51.5885C7.91032 51.3814 8.64757 50.4985 7.90159 49.5937C7.43808 49.0309 6.8317 49.1261 6.20132 49.2966C5.56332 49.4692 4.98965 50.0267 5.03219 50.4985C5.08781 51.1241 5.70073 51.6011 6.44235 51.5917Z" fill="white"/>
<path d="M6.85109 36.3303C6.82492 36.755 6.61552 36.9528 6.28725 37.0762C5.16173 37.4999 4.04058 37.935 2.91507 38.3576C2.64787 38.4581 2.34359 38.6171 2.14619 38.2645C1.95969 37.9319 2.25743 37.6955 2.47119 37.6233C3.23571 37.366 3.23789 36.8241 3.23353 36.1933C3.23026 35.7487 3.1092 35.4736 2.66859 35.3376C2.43302 35.2654 2.28688 35.0761 2.15273 34.9014C2.04258 34.757 2.04803 34.5614 2.17563 34.4003C2.30869 34.2319 2.44392 34.3239 2.60097 34.3815C3.88135 34.847 5.16828 35.2958 6.44648 35.7655C6.72349 35.869 6.89145 36.0876 6.85109 36.3303ZM4.04385 36.3785C4.05149 36.64 4.05258 37.0249 4.36668 36.9025C4.68404 36.7791 5.29152 36.8377 5.27625 36.3669C5.26316 35.9694 4.70913 36.027 4.40158 35.9286C4.03949 35.8136 4.05803 36.1619 4.04385 36.3785Z" fill="white"/>
<path d="M13.5624 60.4166C13.6845 60.8455 13.2493 61.0275 13.028 61.3215C12.4118 62.1416 11.7956 62.9617 11.1892 63.7881C11.0834 63.9325 10.9776 64.1815 10.8042 63.9984C10.6221 63.8059 10.2469 63.6145 10.4639 63.2421C10.9132 62.4722 10.814 61.8665 10.1662 61.2765C9.9197 61.0516 9.64378 61.1269 9.37876 61.13C9.00359 61.1353 8.69385 61.015 8.68949 60.6447C8.68513 60.2576 9.06684 60.3685 9.32641 60.3172C10.3538 60.1153 11.3779 59.8925 12.4019 59.676C13.1741 59.5149 13.5569 59.7429 13.5624 60.4166ZM12.4347 60.7336C12.415 60.6122 12.3212 60.4449 12.1947 60.5223C11.8239 60.7493 11.2295 60.6499 11.0638 61.1416C10.9634 61.4386 11.3015 61.5935 11.5109 61.7451C11.6156 61.8205 12.415 60.9501 12.4347 60.7336Z" fill="white"/>
<path d="M6.23452 40.7758C6.22252 40.7444 6.2138 40.7235 6.20726 40.7015C6.09492 40.3228 5.91279 39.8239 6.53335 39.8082C7.15718 39.7925 6.95215 40.3762 6.97505 40.7329C7.01213 41.3271 6.93142 41.9233 7.19753 42.4997C7.33168 42.7906 7.23134 43.073 6.83872 43.1253C6.46246 43.1755 6.2487 43.0155 6.29233 42.6336C6.35013 42.1252 6.06221 42.0217 5.61505 42.0541C4.7851 42.1148 3.94205 42.098 3.12845 42.2393C2.67585 42.3177 2.46972 42.1336 2.42719 41.848C2.37702 41.5101 2.69003 41.4097 3.0303 41.3846C3.96932 41.3135 4.90506 41.1963 5.84517 41.1304C6.12764 41.1105 6.17345 40.9547 6.23452 40.7758Z" fill="white"/>
<path d="M15.7882 63.2914C16.026 63.3395 16.1732 63.5278 16.2954 63.7046C16.4677 63.9546 16.1798 64.0623 16.0445 64.1711C15.3596 64.7193 14.6616 65.2538 13.956 65.7769C13.5634 66.0687 13.4739 66.3229 13.9233 66.6514C14.197 66.8522 14.4217 67.1169 14.6627 67.3575C14.8819 67.5761 14.9474 67.8879 14.7172 68.0573C14.5122 68.2069 14.1828 68.1494 13.9811 67.8921C13.5405 67.3324 13.1217 66.7539 12.6407 66.2277C12.3833 65.9463 12.5055 65.8135 12.7192 65.6409C13.6157 64.918 14.51 64.1921 15.4109 63.4744C15.5123 63.3939 15.653 63.3562 15.7882 63.2914Z" fill="white"/>
<path d="M3.77753 46.6573C3.45579 46.6375 3.23113 46.5768 3.20495 46.2033C3.17987 45.8393 3.41653 45.741 3.69573 45.6949C4.79289 45.515 5.89223 45.3518 6.96212 45.0391C7.2086 44.9669 7.55105 44.9167 7.66556 45.2671C7.76699 45.5747 7.59795 45.7567 7.2893 45.8676C6.15179 46.2787 4.90086 46.1918 3.77753 46.6573Z" fill="white"/>
<path d="M94.0975 53.264C93.2119 52.8832 92.034 52.6813 90.9271 52.2765C90.7089 52.197 90.3883 52.1719 90.4395 51.8256C90.4875 51.5024 90.637 51.175 90.9936 51.1436C91.7537 51.0766 92.4201 50.6603 93.1901 50.6509C93.3482 50.6488 93.6045 50.7586 93.6372 50.4835C93.6689 50.2126 93.3951 50.1446 93.2195 50.1362C92.6797 50.109 92.1987 49.8883 91.6927 49.7607C91.2346 49.6456 91.1114 49.3433 91.4375 48.9615C91.5367 48.8453 91.6327 48.7763 91.8475 48.8474C92.9229 49.2031 94.0157 49.5127 95.0965 49.8559C95.3626 49.9406 95.7792 49.9636 95.7225 50.3454C95.6701 50.7 95.5044 51.1038 95.0332 51.1237C94.3832 51.1509 93.7997 51.4846 93.1432 51.4595C92.8825 51.4501 92.5717 51.5066 92.5542 51.7827C92.5313 52.1551 92.8945 51.9459 93.0843 52.0024C93.5849 52.1531 94.0964 52.2734 94.5828 52.4564C94.7856 52.5328 94.9776 52.7232 94.8816 52.9931C94.7867 53.2483 94.6188 53.4104 94.0975 53.264Z" fill="white"/>
<path d="M95.0061 34.8006C94.5481 34.7713 93.7868 34.5799 93.4193 33.8047C92.8761 32.6593 92.9841 32.0002 93.7116 31.3224C93.9111 31.1362 94.0856 30.8987 94.4074 31.1676C94.7531 31.4563 94.6244 31.7345 94.3725 31.9584C94.1696 32.1394 94.0802 32.3277 94.0606 32.5819C93.9842 33.6206 94.3986 33.9596 95.679 33.8644C96.9845 33.7681 97.1568 32.903 96.8449 31.9448C96.7675 31.7084 96.5417 31.677 96.3247 31.7188C96.124 31.7576 95.9942 31.8622 96.0749 32.0986C96.1763 32.3957 96.1305 32.6143 95.7357 32.654C95.3584 32.6917 95.246 32.4637 95.2035 32.1854C95.1544 31.8601 95.2406 31.5264 95.0988 31.1989C95.0596 31.109 95.1839 30.8809 95.2962 30.8161C96.3138 30.2313 97.3139 30.7 97.5789 31.8527C97.6803 32.2963 97.942 32.7032 97.7795 33.1959C97.4011 34.3487 96.738 34.8017 95.0061 34.8006Z" fill="white"/>
<path d="M97.844 37.5631C97.844 38.9146 96.9617 39.7776 95.594 39.7661C94.3224 39.7546 93.0573 38.7504 93.1183 37.6572C93.1805 36.5536 93.9668 35.4814 95.5559 35.4772C96.9006 35.474 97.844 36.3444 97.844 37.5631ZM95.5351 36.4113C94.5252 36.4113 94.0999 36.835 94.0486 37.7158C94.0039 38.4847 94.7543 38.7431 95.7031 38.8152C96.4992 38.8759 97.0075 38.3497 97.0086 37.6227C97.0107 36.8988 96.4174 36.4113 95.5351 36.4113Z" fill="white"/>
<path d="M94.2926 44.3423C95.7333 44.3423 96.728 45.1666 96.7247 46.3581C96.7214 47.6646 95.8828 48.4994 94.5729 48.5005C93.0504 48.5015 91.9762 47.6437 91.9707 46.4219C91.9653 45.267 92.9981 44.3423 94.2926 44.3423ZM94.8619 47.581C95.2447 47.6155 95.6548 47.354 95.8413 46.8466C96.018 46.3654 95.8762 45.903 95.4411 45.6039C95.0561 45.3382 94.6187 45.1164 94.1171 45.152C93.4845 45.1969 93.0646 45.54 92.8563 46.1049C92.6764 46.5914 92.8879 46.9931 93.2838 47.2682C93.6819 47.5443 94.1803 47.5506 94.8619 47.581Z" fill="white"/>
<path d="M85.8996 63.4001C86.1362 63.3834 86.2398 63.1982 86.3664 63.0445C86.6499 62.6982 86.9378 62.3551 87.2105 62.0005C87.3937 61.762 87.5846 61.8938 87.7416 61.9942C87.9488 62.1271 87.9576 62.3091 87.7918 62.5089C87.5071 62.853 87.2716 63.2401 86.9586 63.5581C86.5114 64.0111 87.0425 64.0927 87.2258 64.3029C87.5071 64.6241 87.7623 64.4891 87.9663 64.2213C88.2629 63.8311 88.5323 63.4211 88.8213 63.0256C88.9784 62.8112 89.1507 62.6689 89.4441 62.8719C89.7069 63.0549 89.7015 63.2809 89.5477 63.4786C89.0253 64.1502 88.4658 64.7956 87.9401 65.4651C87.7285 65.735 87.5148 65.6775 87.2934 65.5268C86.3042 64.8573 85.3205 64.1795 84.3356 63.5037C84.1012 63.3426 84.0793 63.1763 84.2637 62.942C84.7599 62.3101 85.2234 61.6542 85.7207 61.0234C85.8658 60.8393 86.0588 60.5799 86.3489 60.8017C86.6216 61.0098 86.5441 61.2536 86.338 61.4963C86.049 61.8373 85.7992 62.2087 85.508 62.5486C85.3684 62.7108 85.3575 62.875 85.4099 63.0466C85.4775 63.2673 85.7316 63.2788 85.8996 63.4001Z" fill="white"/>
<path d="M92.4636 57.7655C92.2935 57.7864 92.1561 57.709 92.0045 57.6494C91.0556 57.2749 90.0959 56.9266 89.1525 56.5426C88.9071 56.4433 88.4774 56.3826 88.6519 55.9725C88.8079 55.6074 89.1601 55.552 89.5353 55.6723C89.6215 55.7005 89.7011 55.7466 89.784 55.7842C90.543 56.1273 90.543 56.1273 90.8626 55.3292C91.2116 54.4568 91.2061 54.4693 90.3216 54.1293C90.037 54.0205 89.5648 53.986 89.808 53.4692C90.0054 53.0498 90.2758 53.1596 90.627 53.3008C91.614 53.6994 92.6218 54.053 93.6208 54.4243C93.9698 54.554 94.1857 54.7978 94.021 55.144C93.8738 55.4537 93.576 55.3982 93.3067 55.2403C93.2489 55.2057 93.1801 55.188 93.1169 55.1629C91.9947 54.712 91.7089 54.8469 91.3632 55.984C91.2967 56.2027 91.3577 56.3408 91.5922 56.4339C91.9696 56.5834 92.3306 56.7717 92.7057 56.9266C92.9348 57.0207 93.166 57.1305 93.0613 57.4015C92.9697 57.6327 92.7701 57.8074 92.4636 57.7655Z" fill="white"/>
<path d="M89.7458 61.6695C88.4643 61.6047 87.389 61.0011 86.9909 59.8954C86.6637 58.9863 87.5548 57.573 88.833 57.5103C89.0642 57.4988 89.2496 57.5563 89.2976 57.8074C89.3357 58.0061 89.2692 58.139 89.0587 58.2216C88.8046 58.321 88.5625 58.4486 88.3215 58.5752C88.0924 58.6955 87.9419 58.8514 87.8918 59.1317C87.7631 59.8483 88.1546 60.3337 89.2474 60.7301C89.8625 60.9529 90.3544 60.751 90.7208 60.183C90.9826 59.7771 90.7568 59.4968 90.4929 59.2552C90.1123 58.9068 90.4525 58.7499 90.6587 58.5783C90.9008 58.3754 91.0971 58.3848 91.3272 58.6829C91.9096 59.4382 91.6806 60.1485 91.2585 60.84C90.903 61.4185 90.2649 61.5639 89.7458 61.6695Z" fill="white"/>
<path d="M93.1551 30.6104C92.9348 30.3918 92.7385 30.1857 92.9511 29.8467C93.1823 29.4764 93.5422 29.2243 93.8476 28.9231C94.1584 28.6166 94.1944 28.4314 93.6927 28.3038C93.299 28.2034 92.8999 28.0757 92.5498 27.8832C92.2739 27.7305 92.0045 27.4021 92.1768 27.1144C92.3088 26.8947 92.6632 27.0694 92.9359 27.1426C93.7407 27.3613 94.4922 27.786 95.381 27.7096C95.7322 27.6793 96.0496 27.6238 96.3702 27.4732C96.6418 27.3456 96.9046 27.4 97.0257 27.742C97.126 28.0266 97.0082 28.308 96.7748 28.3205C95.2567 28.4021 94.5009 29.535 93.5422 30.3938C93.4474 30.4807 93.3088 30.5267 93.1551 30.6104Z" fill="white"/>
<path d="M84.1241 64.093C84.1481 64.2436 84.0696 64.3503 83.9594 64.4414C83.3618 64.9341 83.5766 65.3368 84.0958 65.7312C84.6487 66.1517 85.1908 66.5858 85.7241 67.0283C85.9847 67.2449 86.2683 67.4405 85.8964 67.8443C85.507 68.2669 85.3271 67.9677 85.0751 67.7376C84.4524 67.1727 83.8068 66.6308 83.1993 66.0513C82.8917 65.7584 82.6398 65.7479 82.4053 66.0795C82.2843 66.25 82.1534 66.3892 81.9582 66.4624C81.7117 66.5555 81.5732 66.3902 81.4292 66.2406C81.2591 66.0638 81.4161 65.9624 81.5219 65.8504C82.1588 65.1757 82.8121 64.5146 83.4272 63.8221C83.5919 63.6369 83.7479 63.6672 83.9104 63.7133C84.0783 63.7645 84.1438 63.9183 84.1241 64.093Z" fill="white"/>
<path d="M97.5478 41.7527C97.5478 41.8427 97.587 42.0948 97.5412 42.3322C97.2827 43.6587 97.2718 43.6921 95.4025 43.508C94.7067 43.44 93.9825 43.4432 93.3129 43.166C93.0631 43.0624 92.592 43.1754 92.7032 42.7371C92.8003 42.3542 93.1417 42.1188 93.6117 42.2036C94.3959 42.3458 95.1877 42.4578 95.9609 42.644C96.4691 42.7664 96.6251 42.4975 96.7145 42.1439C96.7996 41.805 96.8465 41.4504 96.8585 41.102C96.8683 40.8248 96.9359 40.6962 97.2522 40.7118C97.6252 40.7307 97.6601 40.9106 97.5837 41.1993C97.551 41.3259 97.5641 41.464 97.5478 41.7527Z" fill="white"/>
</svg>
